# xmcd
#
# Track frame offsets: 
#        150
#        15300
#        36547
#        51400
#        71272
#        89417
#        105405
#        122707
#
# Disc length: 1854 seconds
#
# Revision: 0
# Processed by: cddbd v1.4PL0 Copyright (c) Steve Scherf et al.
# Submitted via: ExactAudioCopy v0.90a11
#
DISCID=63073c08
DTITLE=Vince Gill - The Things That Matter
DYEAR=1900
DGENRE=
TTITLE0=She Don't Know
TTITLE1=With You
TTITLE2=Savannah
TTITLE3=Colder Than Winter
TTITLE4=True Love
TTITLE5=If It Weren't For Him (With Rosanne Cash)
TTITLE6=Ain't It Always That Way
TTITLE7=Oklahoma Borderline
EXTD=
EXTT0=
EXTT1=
EXTT2=
EXTT3=
EXTT4=
EXTT5=
EXTT6=
EXTT7=
PLAYORDER=
